<svg id="Capa_1" enable-background="new 0 0 453.54 453.54" height="512" viewBox="0 0 453.54 453.54" width="512" xmlns="http://www.w3.org/2000/svg"><g><path d="m362.42 77.047c-28.359-47.525-80.393-77.048-135.793-77.048-28.373 0-56.316 7.724-80.807 22.335-74.797 44.63-99.341 141.794-54.711 216.595l124.158 208.084c2.416 4.049 6.783 6.528 11.498 6.528s9.082-2.479 11.496-6.528l124.172-208.111c29.706-50.038 29.698-112.057-.013-161.855zm-22.994 148.161-112.66 188.815-112.662-188.815c-37.066-62.121-16.682-142.814 45.438-179.88 20.342-12.137 43.539-18.554 67.086-18.554 46.023 0 89.246 24.521 112.799 63.992 24.675 41.358 24.669 92.882-.001 134.442z"/><path d="m226.732 78.694c-43.053 0-78.08 35.028-78.08 78.083 0 43.054 35.027 78.081 78.08 78.081 43.055 0 78.082-35.027 78.082-78.081 0-43.055-35.027-78.083-78.082-78.083zm0 129.388c-28.289 0-51.303-23.015-51.303-51.304 0-28.291 23.014-51.307 51.303-51.307 28.291 0 51.307 23.016 51.307 51.307 0 28.288-23.016 51.304-51.307 51.304z"/></g></svg>