<?xml version="1.0" encoding="UTF-8"?>
<svg xmlns="http://www.w3.org/2000/svg" viewBox="0 0 48 48" width="512" height="512"><g id="Suitcase"><path d="M44,11H35V8a5.0059,5.0059,0,0,0-5-5H18a5.0059,5.0059,0,0,0-5,5v3H4a3.0033,3.0033,0,0,0-3,3v8a2.9818,2.9818,0,0,0,1,2.22V42a3.0033,3.0033,0,0,0,3,3H43a3.0033,3.0033,0,0,0,3-3V24.22A2.9818,2.9818,0,0,0,47,22V14A3.0033,3.0033,0,0,0,44,11ZM15,8a3.0033,3.0033,0,0,1,3-3H30a3.0033,3.0033,0,0,1,3,3v3H31V8a1,1,0,0,0-1-1H18a1,1,0,0,0-1,1v3H15Zm4,3V9H29v2ZM3,14a1.0013,1.0013,0,0,1,1-1H44a1.0013,1.0013,0,0,1,1,1v8a1.0013,1.0013,0,0,1-1,1H41V22a2.002,2.002,0,0,0-2-2H37a2.002,2.002,0,0,0-2,2v1H13V22a2.002,2.002,0,0,0-2-2H9a2.002,2.002,0,0,0-2,2v1H4a1.0013,1.0013,0,0,1-1-1ZM39.0015,26H37V22h2l.0007,1.9964L39,24l.0007.0037Zm-28,0H9V22h2l.0007,1.9964L11,24l.0007.0037ZM44,42a1.0013,1.0013,0,0,1-1,1H5a1.0013,1.0013,0,0,1-1-1V25H7v1a2.002,2.002,0,0,0,2,2h2a2.002,2.002,0,0,0,2-2V25H35v1a2.002,2.002,0,0,0,2,2h2a2.002,2.002,0,0,0,2-2V25h3Z"/></g></svg>
