<svg clip-rule="evenodd" fill-rule="evenodd" stroke-linejoin="round" stroke-miterlimit="2" viewBox="0 0 100 101" xmlns="http://www.w3.org/2000/svg" xmlns:serif="http://www.serif.com/"><path d="m85.778 27.215c1.532-1.532 1.532-4.015 0-5.547l-6.941-6.942c-1.532-1.532-4.016-1.532-5.548 0l-71.14 71.14c-1.532 1.532-1.532 4.016 0 5.548l6.942 6.941c1.532 1.532 4.015 1.532 5.547 0zm-29.962 10.531-50.893 50.894 6.941 6.942 50.894-50.894zm33.081 5.205v2.289c0 1.083.879 1.961 1.961 1.961 1.083 0 1.961-.878 1.961-1.961v-2.289c0-1.083-.878-1.961-1.961-1.961-1.082 0-1.961.878-1.961 1.961zm-30.307-7.978 6.942 6.941 17.473-17.473-6.942-6.941zm28.377 2.125h-2.289c-1.083 0-1.962.879-1.962 1.961 0 1.083.879 1.962 1.962 1.962h2.289c1.082 0 1.961-.879 1.961-1.962 0-1.082-.879-1.961-1.961-1.961zm10.072 0h-2.289c-1.083 0-1.962.879-1.962 1.961 0 1.083.879 1.962 1.962 1.962h2.289c1.082 0 1.961-.879 1.961-1.962 0-1.082-.879-1.961-1.961-1.961zm-8.142-4.219v2.289c0 1.083.879 1.961 1.961 1.961 1.083 0 1.961-.878 1.961-1.961v-2.289c0-1.083-.878-1.961-1.961-1.961-1.082 0-1.961.878-1.961 1.961zm0-19.349v2.289c0 1.082.879 1.961 1.961 1.961 1.083 0 1.961-.879 1.961-1.961v-2.289c0-1.083-.878-1.962-1.961-1.962-1.082 0-1.961.879-1.961 1.962zm-29.422 0v2.289c0 1.082.879 1.961 1.962 1.961 1.082 0 1.961-.879 1.961-1.961v-2.289c0-1.083-.879-1.962-1.961-1.962-1.083 0-1.962.879-1.962 1.962zm27.492-5.853h-2.289c-1.083 0-1.962.879-1.962 1.961 0 1.083.879 1.962 1.962 1.962h2.289c1.082 0 1.961-.879 1.961-1.962 0-1.082-.879-1.961-1.961-1.961zm-19.35 0h-2.289c-1.082 0-1.961.879-1.961 1.961 0 1.083.879 1.962 1.961 1.962h2.289c1.083 0 1.962-.879 1.962-1.962 0-1.082-.879-1.961-1.962-1.961zm29.422 0h-2.289c-1.083 0-1.962.879-1.962 1.961 0 1.083.879 1.962 1.962 1.962h2.289c1.082 0 1.961-.879 1.961-1.962 0-1.082-.879-1.961-1.961-1.961zm-39.494 0h-2.289c-1.082 0-1.961.879-1.961 1.961 0 1.083.879 1.962 1.961 1.962h2.289c1.083 0 1.962-.879 1.962-1.962 0-1.082-.879-1.961-1.962-1.961zm1.93-4.219v2.289c0 1.082.879 1.961 1.962 1.961 1.082 0 1.961-.879 1.961-1.961v-2.289c0-1.083-.879-1.962-1.961-1.962-1.083 0-1.962.879-1.962 1.962zm29.422 0v2.289c0 1.082.879 1.961 1.961 1.961 1.083 0 1.961-.879 1.961-1.961v-2.289c0-1.083-.878-1.962-1.961-1.962-1.082 0-1.961.879-1.961 1.962z"/></svg>